# xmcd
#
# Track frame offsets: 
#        150
#        14570
#        25040
#        37110
#        48865
#        59877
#        71700
#        88120
#        101810
#        113700
#        127460
#        139527
#        153377
#        164850
#        173055
#        185935
#        199477
#        209912
#        218752
#        235730
#        246020
#        252685
#        261330
#        269755
#        281052
#        296787
#        307397
#        323542
#
# Disc length: 4482 seconds
#
# Revision: 3
# Processed by: cddbd v1.5.2PL0 Copyright (c) Steve Scherf et al.
# Submitted via: ExactAudioCopyFreeDBPlugin 1.0
#
DISCID=dc11801c
DTITLE=Country Gentlemen - The Early Rebel Recordings 1962-1971 Disc 1
DYEAR=1998
DGENRE=Bluegrass
TTITLE0=Christmas Time Back Home
TTITLE1=Heavenward Bound
TTITLE2=I Am Weary [ Let Me Rest]
TTITLE3=Sad and Lonesome Day
TTITLE4=The Bluebirds Are Sing
TTITLE5=The White Rose
TTITLE6=The Gentleman Is Blue
TTITLE7=Philadelphia Lawyer
TTITLE8=Spanish Two-Step
TTITLE9=Bringing Mary Home
TTITLE10=The Convict and the Rose
TTITLE11=Banks of the Ohio
TTITLE12=Down Where the River Bends
TTITLE13=Battle Hymn of the Republic
TTITLE14=This World's No Place To Live
TTITLE15=Uncle Joe
TTITLE16=Northbound
TTITLE17=Let the Light Shine Down
TTITLE18=Gril from the North Country
TTITLE19=Cold Wind a Blowing
TTITLE20=Jingle Bells
TTITLE21=Silent Night
TTITLE22=We Three Kings
TTITLE23=Blue Bells
TTITLE24=It's All Over Now, Baby Blue
TTITLE25=Matterhorn
TTITLE26=Dark as a Dungeon
TTITLE27=Big Bruce
EXTD=
EXTT0=
EXTT1=
EXTT2=
EXTT3=
EXTT4=
EXTT5=
EXTT6=
EXTT7=
EXTT8=
EXTT9=
EXTT10=
EXTT11=
EXTT12=
EXTT13=
EXTT14=
EXTT15=
EXTT16=
EXTT17=
EXTT18=
EXTT19=
EXTT20=
EXTT21=
EXTT22=
EXTT23=
EXTT24=
EXTT25=
EXTT26=
EXTT27=
PLAYORDER=
